# xmcd CD database file
#
# Track frame offsets:
#	150
#	13680
#	25175
#	35695
#	48345
#	61560
#	74230
#	86960
#	99217
#	110575
#	123582
#	136355
#	150062
#	163534
#	176580
#	191347
#	206587
#	220487
#	234352
#	245890
#	259692
#	271727
#
# Disc length: 3823 seconds
#
# Revision: 0
# Processed by: cddbd v1.4PL0 Copyright (c) Steve Scherf et al.
# Submitted via: CDex 1.50
#
DISCID=330eed16
DTITLE=Cab Calloway - Jiveformation Please
DYEAR=1900
DGENRE=Jazz
TTITLE0=Rustle Of Swing
TTITLE1=Foolin' With You
TTITLE2=Floogie Walk
TTITLE3=Trylon Swing
TTITLE4=Utt-Da-Zay
TTITLE5=Crescendo In Drums
TTITLE6=(Hep-Hep!) The Jumpin' Jive
TTITLE7=Pluckin' The Bass
TTITLE8=Jiveformation Please
TTITLE9=A Bee Gezindt
TTITLE10=Pickin' The Cabbage
TTITLE11=Chop, Chop, Charlie Chan (From China)
TTITLE12=Lonesome Nights
TTITLE13=A Chicken Ain't Nothin' But A Bird
TTITLE14=The Workers' Train
TTITLE15=Willow Weep For Me
TTITLE16=Are You All Reet?
TTITLE17=Hep Cat's Love Song
TTITLE18=Jonah Joins The Cab
TTITLE19=Take The "A" Train
TTITLE20=Chattanooga Choo Choo
TTITLE21=St. James Infirmary
EXTD=
EXTT0=
EXTT1=
EXTT2=
EXTT3=
EXTT4=
EXTT5=
EXTT6=
EXTT7=
EXTT8=
EXTT9=
EXTT10=
EXTT11=
EXTT12=
EXTT13=
EXTT14=
EXTT15=
EXTT16=
EXTT17=
EXTT18=
EXTT19=
EXTT20=
EXTT21=
PLAYORDER=
